<svg width="209" height="146" viewBox="0 0 209 146" fill="none" xmlns="http://www.w3.org/2000/svg">
<rect y="17" width="204" height="119" rx="6" fill="#ACC3EA"/>
<rect y="27" width="209" height="117" rx="6" fill="#C3D4F0"/>
<path d="M0 103H209V140C209 143.314 206.314 146 203 146H6.00001C2.6863 146 0 143.314 0 140V103Z" fill="#ACC3EA"/>
<path d="M0 10C0 4.47715 4.47715 0 10 0H66.4581C69.8091 0 72.9374 1.67845 74.7903 4.47058L83.2271 17.1839L90.8982 31.1986C94.5459 37.8627 89.7234 46 82.1263 46H10C4.47715 46 0 41.5228 0 36V10Z" fill="#C3D4F0"/>
</svg>
