<svg width="134" height="103" viewBox="0 0 134 103" fill="none" xmlns="http://www.w3.org/2000/svg">
<path d="M0 0H134V65L66.1067 103L0 65V0Z" fill="#C0D3F7"/>
<path d="M28.1685 20.48C28.1685 21.2933 27.9818 22.04 27.6085 22.72C27.2352 23.3867 26.6618 23.9267 25.8885 24.34C25.1152 24.7533 24.1552 24.96 23.0085 24.96H20.8885V30H17.4685V15.96H23.0085C24.1285 15.96 25.0752 16.1533 25.8485 16.54C26.6218 16.9267 27.2018 17.46 27.5885 18.14C27.9752 18.82 28.1685 19.6 28.1685 20.48ZM22.7485 22.24C23.4018 22.24 23.8885 22.0867 24.2085 21.78C24.5285 21.4733 24.6885 21.04 24.6885 20.48C24.6885 19.92 24.5285 19.4867 24.2085 19.18C23.8885 18.8733 23.4018 18.72 22.7485 18.72H20.8885V22.24H22.7485ZM31.669 17.68C31.069 17.68 30.5757 17.5067 30.189 17.16C29.8157 16.8 29.629 16.36 29.629 15.84C29.629 15.3067 29.8157 14.8667 30.189 14.52C30.5757 14.16 31.069 13.98 31.669 13.98C32.2557 13.98 32.7357 14.16 33.109 14.52C33.4957 14.8667 33.689 15.3067 33.689 15.84C33.689 16.36 33.4957 16.8 33.109 17.16C32.7357 17.5067 32.2557 17.68 31.669 17.68ZM33.369 18.84V30H29.949V18.84H33.369ZM42.4474 30L40.3074 26.9L38.5074 30H34.8074L38.4874 24.3L34.7074 18.84H38.5474L40.6874 21.92L42.4874 18.84H46.1874L42.4474 24.46L46.2874 30H42.4474ZM52.1452 30.16C51.1719 30.16 50.3052 29.9933 49.5452 29.66C48.7852 29.3267 48.1852 28.8733 47.7452 28.3C47.3052 27.7133 47.0586 27.06 47.0052 26.34H50.3852C50.4252 26.7267 50.6052 27.04 50.9252 27.28C51.2452 27.52 51.6386 27.64 52.1052 27.64C52.5319 27.64 52.8586 27.56 53.0852 27.4C53.3252 27.2267 53.4452 27.0067 53.4452 26.74C53.4452 26.42 53.2786 26.1867 52.9452 26.04C52.6119 25.88 52.0719 25.7067 51.3252 25.52C50.5252 25.3333 49.8586 25.14 49.3252 24.94C48.7919 24.7267 48.3319 24.4 47.9452 23.96C47.5586 23.5067 47.3652 22.9 47.3652 22.14C47.3652 21.5 47.5386 20.92 47.8852 20.4C48.2452 19.8667 48.7652 19.4467 49.4452 19.14C50.1386 18.8333 50.9586 18.68 51.9052 18.68C53.3052 18.68 54.4052 19.0267 55.2052 19.72C56.0186 20.4133 56.4852 21.3333 56.6052 22.48H53.4452C53.3919 22.0933 53.2186 21.7867 52.9252 21.56C52.6452 21.3333 52.2719 21.22 51.8052 21.22C51.4052 21.22 51.0986 21.3 50.8852 21.46C50.6719 21.6067 50.5652 21.8133 50.5652 22.08C50.5652 22.4 50.7319 22.64 51.0652 22.8C51.4119 22.96 51.9452 23.12 52.6652 23.28C53.4919 23.4933 54.1652 23.7067 54.6852 23.92C55.2052 24.12 55.6586 24.4533 56.0452 24.92C56.4452 25.3733 56.6519 25.9867 56.6652 26.76C56.6652 27.4133 56.4786 28 56.1052 28.52C55.7452 29.0267 55.2186 29.4267 54.5252 29.72C53.8452 30.0133 53.0519 30.16 52.1452 30.16ZM62.1776 20.42C62.5109 19.9 62.9709 19.48 63.5576 19.16C64.1442 18.84 64.8309 18.68 65.6176 18.68C66.5376 18.68 67.3709 18.9133 68.1176 19.38C68.8642 19.8467 69.4509 20.5133 69.8776 21.38C70.3176 22.2467 70.5376 23.2533 70.5376 24.4C70.5376 25.5467 70.3176 26.56 69.8776 27.44C69.4509 28.3067 68.8642 28.98 68.1176 29.46C67.3709 29.9267 66.5376 30.16 65.6176 30.16C64.8442 30.16 64.1576 30 63.5576 29.68C62.9709 29.36 62.5109 28.9467 62.1776 28.44V35.32H58.7576V18.84H62.1776V20.42ZM67.0576 24.4C67.0576 23.5467 66.8176 22.88 66.3376 22.4C65.8709 21.9067 65.2909 21.66 64.5976 21.66C63.9176 21.66 63.3376 21.9067 62.8576 22.4C62.3909 22.8933 62.1576 23.5667 62.1576 24.42C62.1576 25.2733 62.3909 25.9467 62.8576 26.44C63.3376 26.9333 63.9176 27.18 64.5976 27.18C65.2776 27.18 65.8576 26.9333 66.3376 26.44C66.8176 25.9333 67.0576 25.2533 67.0576 24.4ZM79.1918 18.72C80.4718 18.72 81.4985 19.1467 82.2718 20C83.0451 20.84 83.4318 22 83.4318 23.48V30H80.0318V23.94C80.0318 23.1933 79.8385 22.6133 79.4518 22.2C79.0651 21.7867 78.5451 21.58 77.8918 21.58C77.2385 21.58 76.7185 21.7867 76.3318 22.2C75.9451 22.6133 75.7518 23.1933 75.7518 23.94V30H72.3318V15.2H75.7518V20.34C76.0985 19.8467 76.5718 19.4533 77.1718 19.16C77.7718 18.8667 78.4451 18.72 79.1918 18.72ZM96.3284 24.24C96.3284 24.56 96.3084 24.8933 96.2684 25.24H88.5284C88.5817 25.9333 88.8017 26.4667 89.1884 26.84C89.5884 27.2 90.075 27.38 90.6484 27.38C91.5017 27.38 92.095 27.02 92.4284 26.3H96.0684C95.8817 27.0333 95.5417 27.6933 95.0484 28.28C94.5684 28.8667 93.9617 29.3267 93.2284 29.66C92.495 29.9933 91.675 30.16 90.7684 30.16C89.675 30.16 88.7017 29.9267 87.8484 29.46C86.995 28.9933 86.3284 28.3267 85.8484 27.46C85.3684 26.5933 85.1284 25.58 85.1284 24.42C85.1284 23.26 85.3617 22.2467 85.8284 21.38C86.3084 20.5133 86.975 19.8467 87.8284 19.38C88.6817 18.9133 89.6617 18.68 90.7684 18.68C91.8484 18.68 92.8084 18.9067 93.6484 19.36C94.4884 19.8133 95.1417 20.46 95.6084 21.3C96.0884 22.14 96.3284 23.12 96.3284 24.24ZM92.8284 23.34C92.8284 22.7533 92.6284 22.2867 92.2284 21.94C91.8284 21.5933 91.3284 21.42 90.7284 21.42C90.155 21.42 89.6684 21.5867 89.2684 21.92C88.8817 22.2533 88.6417 22.7267 88.5484 23.34H92.8284ZM101.553 20.7C101.953 20.0867 102.453 19.6067 103.053 19.26C103.653 18.9 104.319 18.72 105.053 18.72V22.34H104.113C103.259 22.34 102.619 22.5267 102.193 22.9C101.766 23.26 101.553 23.9 101.553 24.82V30H98.1326V18.84H101.553V20.7ZM117.207 24.24C117.207 24.56 117.187 24.8933 117.147 25.24H109.407C109.461 25.9333 109.681 26.4667 110.067 26.84C110.467 27.2 110.954 27.38 111.527 27.38C112.381 27.38 112.974 27.02 113.307 26.3H116.947C116.761 27.0333 116.421 27.6933 115.927 28.28C115.447 28.8667 114.841 29.3267 114.107 29.66C113.374 29.9933 112.554 30.16 111.647 30.16C110.554 30.16 109.581 29.9267 108.727 29.46C107.874 28.9933 107.207 28.3267 106.727 27.46C106.247 26.5933 106.007 25.58 106.007 24.42C106.007 23.26 106.241 22.2467 106.707 21.38C107.187 20.5133 107.854 19.8467 108.707 19.38C109.561 18.9133 110.541 18.68 111.647 18.68C112.727 18.68 113.687 18.9067 114.527 19.36C115.367 19.8133 116.021 20.46 116.487 21.3C116.967 22.14 117.207 23.12 117.207 24.24ZM113.707 23.34C113.707 22.7533 113.507 22.2867 113.107 21.94C112.707 21.5933 112.207 21.42 111.607 21.42C111.034 21.42 110.547 21.5867 110.147 21.92C109.761 22.2533 109.521 22.7267 109.427 23.34H113.707Z" fill="white"/>
</svg>
