<svg width="643" height="575" viewBox="0 0 643 575" fill="none" xmlns="http://www.w3.org/2000/svg">
<rect x="241" width="323" height="132" rx="60" fill="#ACBAD1"/>
<rect x="89" y="167" width="475" height="132" rx="60" fill="#E1EBFC"/>
<rect y="334" width="587" height="132" rx="60" fill="#ACC3EA"/>
<circle cx="534.335" cy="466.335" r="20" transform="rotate(-5 534.335 466.335)" stroke="#E8F0FD" stroke-width="10"/>
<circle cx="534.335" cy="466.335" r="45" transform="rotate(-5 534.335 466.335)" stroke="#E8F0FD" stroke-width="10"/>
<circle cx="534.335" cy="466.335" r="70" transform="rotate(-5 534.335 466.335)" stroke="#E8F0FD" stroke-width="10"/>
<circle cx="534.335" cy="466.335" r="95" transform="rotate(-5 534.335 466.335)" stroke="#E8F0FD" stroke-width="10"/>
<path d="M44.1208 234.623C70.3503 253.77 74.529 234.676 73.3397 222.736C75.5028 229.326 82.365 242.385 92.509 241.905C102.212 241.445 102.601 228.933 101.491 221.924C102.354 225.809 106.081 232.748 115.774 235.446C126.29 238.374 126.359 219.259 125.078 209.336C131.03 215.288 144.579 225.548 151.156 218.971C157.733 212.394 155.604 201.918 153.718 197.502C155.819 199.602 161.979 203.106 169.812 200.315C179.603 196.825 173.577 122.499 164.407 131.669C157.071 139.005 157.048 148.131 157.954 151.777C153.738 145.664 143.662 135.082 137.085 141.659C130.508 148.236 131.479 158.819 132.786 163.289C126.309 156.812 112.026 145.185 106.714 150.497C101.402 155.81 103.668 167.899 105.465 173.28C97.9708 166.418 81.5288 154.15 75.7106 159.968C69.8925 165.786 74.7723 175.262 77.9394 179.272C71.5978 175.46 57.5244 168.596 51.9635 171.636C46.4027 174.676 47.3489 183.253 48.517 187.162C37.4987 182.215 26.6372 183.833 22.5838 185.26C18.8339 193.737 17.8913 215.477 44.1208 234.623Z" fill="#B9CAE8"/>
</svg>
