<svg width="202" height="146" viewBox="0 0 202 146" fill="none" xmlns="http://www.w3.org/2000/svg">
<rect y="18" width="197" height="120" rx="6" fill="#ACC3EA"/>
<rect y="27" width="202" height="119" rx="6" fill="#C3D4F0"/>
<path d="M0 10C0 4.47715 4.47715 0 10 0H64.1905C67.5915 0 70.7594 1.72854 72.5998 4.58854L80.7051 17.1839L88.2038 31.3117C91.739 37.9721 86.9113 46 79.3709 46H10C4.47716 46 0 41.5228 0 36V10Z" fill="#C3D4F0"/>
<path d="M0 104H202V140C202 143.314 199.314 146 196 146H6C2.68629 146 0 143.314 0 140V104Z" fill="#ACC3EA"/>
<path d="M73.106 127H71.852L68.079 121.291V127H66.825V119.344H68.079L71.852 125.042V119.344H73.106V127ZM80.3077 123.821C80.3077 124.048 80.2931 124.254 80.2637 124.437H75.6327C75.6694 124.921 75.8491 125.31 76.1717 125.603C76.4944 125.896 76.8904 126.043 77.3597 126.043C78.0344 126.043 78.5111 125.761 78.7897 125.196H80.1427C79.9594 125.753 79.6257 126.212 79.1417 126.571C78.6651 126.923 78.0711 127.099 77.3597 127.099C76.7804 127.099 76.2597 126.971 75.7977 126.714C75.3431 126.45 74.9837 126.083 74.7197 125.614C74.4631 125.137 74.3347 124.587 74.3347 123.964C74.3347 123.341 74.4594 122.794 74.7087 122.325C74.9654 121.848 75.3211 121.482 75.7757 121.225C76.2377 120.968 76.7657 120.84 77.3597 120.84C77.9317 120.84 78.4414 120.965 78.8887 121.214C79.3361 121.463 79.6844 121.815 79.9337 122.27C80.1831 122.717 80.3077 123.234 80.3077 123.821ZM78.9987 123.425C78.9914 122.963 78.8264 122.593 78.5037 122.314C78.1811 122.035 77.7814 121.896 77.3047 121.896C76.8721 121.896 76.5017 122.035 76.1937 122.314C75.8857 122.585 75.7024 122.956 75.6437 123.425H78.9987ZM89.6818 120.939L87.8008 127H86.4808L85.2598 122.523L84.0388 127H82.7188L80.8268 120.939H82.1028L83.3678 125.812L84.6548 120.939H85.9638L87.1958 125.79L88.4498 120.939H89.6818ZM97.9754 119.355V120.378H94.7304V122.633H97.2604V123.656H94.7304V127H93.4764V119.355H97.9754ZM101.767 127.099C101.195 127.099 100.678 126.971 100.216 126.714C99.7535 126.45 99.3905 126.083 99.1265 125.614C98.8625 125.137 98.7305 124.587 98.7305 123.964C98.7305 123.348 98.8662 122.802 99.1375 122.325C99.4088 121.848 99.7792 121.482 100.249 121.225C100.718 120.968 101.242 120.84 101.822 120.84C102.401 120.84 102.925 120.968 103.395 121.225C103.864 121.482 104.234 121.848 104.506 122.325C104.777 122.802 104.913 123.348 104.913 123.964C104.913 124.58 104.773 125.126 104.495 125.603C104.216 126.08 103.835 126.45 103.351 126.714C102.874 126.971 102.346 127.099 101.767 127.099ZM101.767 126.01C102.089 126.01 102.39 125.933 102.669 125.779C102.955 125.625 103.186 125.394 103.362 125.086C103.538 124.778 103.626 124.404 103.626 123.964C103.626 123.524 103.541 123.154 103.373 122.853C103.204 122.545 102.98 122.314 102.702 122.16C102.423 122.006 102.122 121.929 101.8 121.929C101.477 121.929 101.176 122.006 100.898 122.16C100.626 122.314 100.41 122.545 100.249 122.853C100.087 123.154 100.007 123.524 100.007 123.964C100.007 124.617 100.172 125.123 100.502 125.482C100.839 125.834 101.261 126.01 101.767 126.01ZM107.406 118.86V127H106.152V118.86H107.406ZM108.635 123.942C108.635 123.333 108.759 122.794 109.009 122.325C109.265 121.856 109.61 121.493 110.043 121.236C110.483 120.972 110.97 120.84 111.506 120.84C111.902 120.84 112.29 120.928 112.672 121.104C113.06 121.273 113.368 121.5 113.596 121.786V118.86H114.861V127H113.596V126.087C113.39 126.38 113.104 126.622 112.738 126.813C112.378 127.004 111.964 127.099 111.495 127.099C110.967 127.099 110.483 126.967 110.043 126.703C109.61 126.432 109.265 126.058 109.009 125.581C108.759 125.097 108.635 124.551 108.635 123.942ZM113.596 123.964C113.596 123.546 113.508 123.183 113.332 122.875C113.163 122.567 112.939 122.332 112.661 122.171C112.382 122.01 112.081 121.929 111.759 121.929C111.436 121.929 111.135 122.01 110.857 122.171C110.578 122.325 110.351 122.556 110.175 122.864C110.006 123.165 109.922 123.524 109.922 123.942C109.922 124.36 110.006 124.727 110.175 125.042C110.351 125.357 110.578 125.599 110.857 125.768C111.143 125.929 111.443 126.01 111.759 126.01C112.081 126.01 112.382 125.929 112.661 125.768C112.939 125.607 113.163 125.372 113.332 125.064C113.508 124.749 113.596 124.382 113.596 123.964ZM122.063 123.821C122.063 124.048 122.048 124.254 122.019 124.437H117.388C117.424 124.921 117.604 125.31 117.927 125.603C118.249 125.896 118.645 126.043 119.115 126.043C119.789 126.043 120.266 125.761 120.545 125.196H121.898C121.714 125.753 121.381 126.212 120.897 126.571C120.42 126.923 119.826 127.099 119.115 127.099C118.535 127.099 118.015 126.971 117.553 126.714C117.098 126.45 116.739 126.083 116.475 125.614C116.218 125.137 116.09 124.587 116.09 123.964C116.09 123.341 116.214 122.794 116.464 122.325C116.72 121.848 117.076 121.482 117.531 121.225C117.993 120.968 118.521 120.84 119.115 120.84C119.687 120.84 120.196 120.965 120.644 121.214C121.091 121.463 121.439 121.815 121.689 122.27C121.938 122.717 122.063 123.234 122.063 123.821ZM120.754 123.425C120.746 122.963 120.581 122.593 120.259 122.314C119.936 122.035 119.536 121.896 119.06 121.896C118.627 121.896 118.257 122.035 117.949 122.314C117.641 122.585 117.457 122.956 117.399 123.425H120.754ZM124.551 121.819C124.734 121.511 124.976 121.273 125.277 121.104C125.585 120.928 125.948 120.84 126.366 120.84V122.138H126.047C125.555 122.138 125.181 122.263 124.925 122.512C124.675 122.761 124.551 123.194 124.551 123.81V127H123.297V120.939H124.551V121.819Z" fill="white"/>
<path d="M103.925 70.825H98.6V76.225H96.475V70.825H91.175V68.9H96.475V63.475H98.6V68.9H103.925V70.825Z" fill="white"/>
</svg>
